<svg width="292" height="83" viewBox="0 0 292 83" fill="none" xmlns="http://www.w3.org/2000/svg">
<path d="M101.312 64.7029V19.9029H128.896V26.6869H108.736V38.5909H126.528V45.2469H108.736V57.9189H129.088V64.7029H101.312ZM137.718 64.7029V19.9029H144.886V64.7029H137.718ZM167.115 65.4709C164 65.4709 161.227 64.7669 158.795 63.3589C156.406 61.9083 154.507 59.9243 153.099 57.4069C151.734 54.8896 151.051 51.9883 151.051 48.7029C151.051 45.4176 151.755 42.5163 153.163 39.9989C154.571 37.4816 156.491 35.5189 158.923 34.1109C161.398 32.6603 164.214 31.9349 167.371 31.9349C170.23 31.9349 172.811 32.6816 175.115 34.1749C177.419 35.6256 179.232 37.7376 180.555 40.5109C181.92 43.2843 182.603 46.5909 182.603 50.4309H157.451L158.411 49.5349C158.411 51.4976 158.838 53.2043 159.691 54.6549C160.544 56.0629 161.675 57.1509 163.083 57.9189C164.491 58.6869 166.048 59.0709 167.755 59.0709C169.718 59.0709 171.339 58.6443 172.619 57.7909C173.899 56.8949 174.902 55.7429 175.627 54.3349L181.963 57.0229C181.067 58.7296 179.915 60.2229 178.507 61.5029C177.142 62.7829 175.499 63.7643 173.579 64.4469C171.702 65.1296 169.547 65.4709 167.115 65.4709ZM158.859 45.8229L157.835 44.9269H175.883L174.923 45.8229C174.923 44.0736 174.539 42.6443 173.771 41.5349C173.003 40.3829 172.022 39.5296 170.827 38.9749C169.675 38.3776 168.459 38.0789 167.179 38.0789C165.899 38.0789 164.619 38.3776 163.339 38.9749C162.059 39.5296 160.992 40.3829 160.139 41.5349C159.286 42.6443 158.859 44.0736 158.859 45.8229ZM197.21 64.7029L209.69 32.7029H217.114L203.93 64.7029H197.21ZM196.698 64.7029L183.45 32.7029H190.81L203.354 64.7029H196.698ZM222.041 64.7029V32.7029H229.145V64.7029H222.041ZM225.625 26.6229C224.473 26.6229 223.47 26.2176 222.617 25.4069C221.806 24.5536 221.401 23.5509 221.401 22.3989C221.401 21.2469 221.806 20.2656 222.617 19.4549C223.47 18.6443 224.473 18.2389 225.625 18.2389C226.777 18.2389 227.758 18.6443 228.569 19.4549C229.422 20.2656 229.849 21.2469 229.849 22.3989C229.849 23.5509 229.422 24.5536 228.569 25.4069C227.758 26.2176 226.777 26.6229 225.625 26.6229ZM250.329 65.4709C246.958 65.4709 244.377 64.6389 242.585 62.9749C240.836 61.2683 239.961 58.8363 239.961 55.6789V22.7189H247.065V54.3349C247.065 55.8283 247.406 56.9589 248.089 57.7269C248.814 58.4949 249.86 58.8789 251.225 58.8789C251.652 58.8789 252.121 58.7936 252.633 58.6229C253.145 58.4523 253.721 58.1323 254.361 57.6629L256.985 63.1029C255.876 63.8709 254.766 64.4469 253.657 64.8309C252.548 65.2576 251.438 65.4709 250.329 65.4709ZM234.649 38.8469V32.7029H255.705V38.8469H234.649ZM281.801 64.7029L281.481 58.6869V48.2549C281.481 46.0789 281.246 44.2656 280.777 42.8149C280.35 41.3216 279.625 40.1909 278.601 39.4229C277.619 38.6123 276.297 38.2069 274.633 38.2069C273.097 38.2069 271.753 38.5269 270.601 39.1669C269.449 39.8069 268.467 40.8096 267.657 42.1749L261.385 39.8709C262.067 38.4629 262.963 37.1616 264.073 35.9669C265.225 34.7296 266.654 33.7483 268.361 33.0229C270.11 32.2976 272.201 31.9349 274.633 31.9349C277.747 31.9349 280.35 32.5536 282.441 33.7909C284.531 34.9856 286.067 36.7136 287.049 38.9749C288.073 41.2363 288.585 43.9669 288.585 47.1669L288.393 64.7029H281.801ZM272.585 65.4709C268.745 65.4709 265.758 64.6176 263.625 62.9109C261.534 61.2043 260.489 58.7936 260.489 55.6789C260.489 52.3509 261.598 49.8123 263.817 48.0629C266.078 46.3136 269.214 45.4389 273.225 45.4389H281.801V50.9429H275.529C272.67 50.9429 270.665 51.3483 269.513 52.1589C268.361 52.9269 267.785 54.0363 267.785 55.4869C267.785 56.7243 268.275 57.7056 269.257 58.4309C270.281 59.1136 271.689 59.4549 273.481 59.4549C275.102 59.4549 276.51 59.0923 277.705 58.3669C278.899 57.6416 279.817 56.6816 280.457 55.4869C281.139 54.2923 281.481 52.9483 281.481 51.4549H283.593C283.593 55.8069 282.718 59.2416 280.969 61.7589C279.219 64.2336 276.425 65.4709 272.585 65.4709Z" fill="#F83A4E"/>
<path d="M81.0435 1.02351C81.9531 0.171358 81.9624 0.274106 81.9624 11.0581V21.4045L76.8365 25.0028C74.0176 26.9816 71.072 29.0454 70.2911 29.5893C68.9025 30.5563 62.1081 35.3328 61.9758 35.4351C61.9399 35.4628 62.6786 36.7424 63.6178 38.2783C64.5569 39.8141 65.3586 41.17 65.3989 41.2911C65.4633 41.4795 69.4658 38.7379 79.4136 31.6914C80.7038 30.7773 81.7994 30.0693 81.8482 30.118C81.8969 30.1701 81.9537 34.0991 81.9749 38.8519C82.0118 47.2237 81.9972 47.5382 81.5182 48.8004C80.6119 51.1875 79.3974 52.5207 75.9634 54.8983C72.3301 57.414 70.9085 58.4045 67.5595 60.7548L65.1096 62.4743L65.6763 63.4412C66.8905 65.513 68.7224 68.4426 68.8039 68.4426C68.8869 68.4396 73.6706 65.1169 79.4203 61.0685C80.7141 60.1573 81.8119 59.451 81.8597 59.4986C81.9075 59.5471 81.9585 63.4938 81.9731 68.2696L82 76.9535L81.3781 78.339C80.7099 79.8278 79.7829 80.787 78.263 81.5624C76.8661 82.275 74.299 82.4168 63.6351 82.3708L54.3007 82.3304L54.1868 70.3778C54.073 58.4338 54.0725 58.4243 53.543 57.3488C52.4531 55.136 50.9828 54.3932 47.3568 54.2226L44.7386 54.0994V39.301L54.1548 39.178L54.2391 31.3848C54.3331 22.6926 54.3781 22.4098 56.0769 19.7962C57.3027 17.9104 58.6724 16.7516 64.4319 12.7269C77.1354 3.85009 80.73 1.31743 81.0435 1.02351Z" fill="#F83A4E"/>
<path d="M0.234476 0.711136C0.362652 0.711136 2.23253 1.96003 4.38943 3.48629C6.54659 5.01281 9.28489 6.92761 10.4745 7.7413C11.664 8.55499 13.5082 9.84731 14.5725 10.6129C15.6369 11.3786 18.1251 13.1164 20.1019 14.4746C27.3628 19.4633 27.8143 20.4494 27.95 31.6172L28.0423 39.1871H37.3394V54.2133H35.1031C31.5932 54.2133 29.7534 55.106 28.6515 57.3435L28.1188 58.4252L27.8911 82.3304H5.57958L4.18488 81.6858C2.51722 80.9152 1.34991 79.7784 0.6389 78.2323C0.125963 77.1168 0.11418 76.9191 0.048384 68.3857C-0.000792481 61.9893 0.0501484 59.6773 0.240479 59.6773C0.383294 59.6775 2.10367 60.7835 4.06394 62.1352C5.89682 63.3991 7.73015 64.6625 9.56378 65.9253C10.6281 66.6579 11.8878 67.5619 12.3632 67.9343C12.8384 68.3064 13.263 68.573 13.307 68.5271C13.4898 68.3331 16.8489 62.6764 16.8492 62.5619C16.8492 62.4931 14.0145 60.4586 10.5498 58.0405C-0.385548 50.4084 0.00169338 51.1274 0.00169409 38.4563C0.00169409 32.6276 0.0737632 30.3087 0.254709 30.3081C0.503551 30.3081 7.07923 34.8228 13.2823 39.2527C15.0144 40.4899 16.4578 41.4677 16.4897 41.426C17.2072 40.4854 20.0089 35.4332 19.8782 35.3148C19.7774 35.2248 18.4656 34.301 16.963 33.2622C15.4604 32.2231 13.0528 30.5368 11.6128 29.5146C10.1728 28.4923 7.20171 26.3925 5.01041 24.8485C2.81922 23.3047 0.795991 21.8346 0.513949 21.5817L0.00169409 21.1219V10.9167C0.00169409 4.11042 0.0792343 0.711745 0.234476 0.711136Z" fill="#F83A4E"/>
</svg>
