<svg width="136" height="77" viewBox="0 0 136 77" fill="none" xmlns="http://www.w3.org/2000/svg">
<path d="M27.5201 73.4837C23.596 73.3036 20.1341 72.7218 16.8101 71.6897C13.0241 70.5137 9.35811 68.6718 6.37012 66.4397C5.38612 65.7077 4.24011 64.7717 4.24011 64.6996C4.24011 64.6697 4.74412 64.0456 5.36211 63.3078C8.18211 59.9417 9.00412 58.9637 10.1621 57.5777C10.8461 56.7556 11.6201 55.8316 11.8841 55.5196C12.1481 55.2078 12.3701 54.9436 12.3761 54.9317C12.3821 54.9198 12.7241 55.1597 13.1321 55.4656C17.5001 58.7236 22.0601 60.5898 27.0701 61.1716C27.9761 61.2737 30.9942 61.2737 31.6601 61.1716C33.4062 60.8957 34.7202 60.2476 35.32 59.3657C35.7042 58.8077 35.8301 58.3576 35.8241 57.5598C35.8182 56.6297 35.6981 56.3057 35.146 55.7536C34.2821 54.9018 32.9741 54.4697 27.1602 53.1197C22.1201 51.9557 19.4262 51.1877 16.9601 50.2156C15.8561 49.7777 13.8701 48.8058 13.0901 48.3137C9.31011 45.9498 7.37811 42.9798 6.8081 38.6598C6.69412 37.7897 6.71211 35.2637 6.84412 34.3097C7.72012 27.8177 11.7821 23.0778 18.4181 20.8038C20.4282 20.1136 22.5941 19.6937 25.0542 19.5136C27.0581 19.3697 30.7781 19.4956 33.0701 19.7957C38.2061 20.4558 42.8261 22.1297 46.834 24.7816C47.7041 25.3517 48.9882 26.2937 49.1141 26.4437C49.168 26.5098 48.4421 27.5776 45.6041 31.5856C43.6361 34.3697 41.9801 36.6976 41.9201 36.7576C41.8182 36.8657 41.7942 36.8536 41.164 36.4217C39.6701 35.3957 37.7741 34.3577 36.0702 33.6316C31.6061 31.7236 26.4581 31.1056 23.8121 32.1618C22.0541 32.8578 21.2562 34.3218 21.7002 36.0497C21.9401 36.9977 22.5041 37.5977 23.71 38.1857C24.964 38.7978 26.7221 39.2897 31.0601 40.2497C34.8641 41.0898 37.0241 41.6597 39.1182 42.3737C45.0162 44.3898 48.3641 47.0657 49.804 50.9177C50.6201 53.1017 50.8602 55.9276 50.4701 58.7596C49.804 63.5656 47.3142 67.4358 43.2222 70.0218C42.4722 70.4957 40.8581 71.3057 39.9701 71.6537C37.6601 72.5597 35.2002 73.1116 32.2601 73.3758C31.2941 73.4596 28.4261 73.5257 27.5201 73.4837Z" fill="#1E1E1E"/>
<path d="M57.6399 46.4894V20.3594H64.9899H72.3399V46.4894V72.6193H64.9899H57.6399V46.4894Z" fill="#1E1E1E"/>
<path d="M118.138 67.8075C120.028 65.1555 121.948 62.4616 122.41 61.8196L123.25 60.6436L127.462 66.6076C129.784 69.8836 131.68 72.5775 131.68 72.5955C131.68 72.6076 127.858 72.6195 123.19 72.6195H114.706L118.138 67.8075Z" fill="#1E1E1E"/>
<path d="M85.942 32.2753C81.334 25.7533 77.5601 20.4073 77.5601 20.3893C77.5601 20.3713 81.43 20.3594 86.158 20.3594H94.7499L98.8541 26.1613C101.11 29.3534 102.958 31.9874 102.958 32.0233C102.958 32.0953 94.432 44.0773 94.3659 44.1074C94.3421 44.1133 90.55 38.7913 85.942 32.2753Z" fill="#1E1E1E"/>
<path d="M39.3822 12.8595C38.3262 12.7455 37.5702 12.4815 37.2642 12.1215C37.0302 11.8455 36.8443 11.4015 36.7182 10.8195C36.6222 10.3755 36.6102 9.9975 36.6102 7.78951C36.6102 5.59349 36.6222 5.21549 36.7123 4.8615C36.9162 4.08149 37.2343 3.6255 37.7802 3.3495C38.5902 2.93549 40.0782 2.76751 41.8122 2.88749C43.2402 2.98949 43.8402 3.14551 44.1822 3.5115C44.4823 3.8355 44.6803 4.56149 44.6803 5.37749V5.7795H44.1702H43.6602V5.43149C43.6602 5.0115 43.5223 4.44151 43.3602 4.2195C43.1082 3.86549 42.4061 3.73951 40.6722 3.73951C38.9982 3.74549 38.2963 3.8955 37.9663 4.3155C37.6482 4.71749 37.5461 5.6235 37.5461 7.90949C37.5403 10.2735 37.6603 11.1015 38.0502 11.5155C38.4162 11.8995 39.3222 12.0435 41.1582 12.0075C43.2523 11.9595 43.4922 11.8035 43.6723 10.3695C43.7082 10.0455 43.7202 9.6075 43.6903 9.30151L43.6482 8.77949H42.0642H40.4802V8.3595V7.9395H42.5862H44.6922L44.6621 9.3975C44.5962 12.5235 44.2961 12.8115 41.0802 12.8835C40.4381 12.9015 39.6762 12.8895 39.3822 12.8595Z" fill="#1E1E1E"/>
<path d="M66.9581 12.8595C65.5242 12.7215 64.8521 12.3315 64.5281 11.4555C64.3962 11.0895 64.3962 11.0835 64.3721 7.02748L64.3541 2.95947H64.8642H65.3741L65.3921 6.84747C65.4161 10.4295 65.4222 10.7535 65.5301 11.0775C65.7882 11.8935 66.0822 11.9895 68.2301 11.9895C69.9522 11.9895 70.3422 11.9295 70.6722 11.6175C71.0861 11.2215 71.1401 10.6455 71.1401 6.39747V2.95947H71.6562H72.1661L72.1421 6.87746C72.1241 10.3095 72.1061 10.8375 72.0162 11.1795C71.7462 12.2115 71.2781 12.5895 70.0003 12.7995C69.4603 12.8835 67.6242 12.9255 66.9581 12.8595Z" fill="#1E1E1E"/>
<path d="M94.096 12.8595C92.908 12.7455 92.0861 12.4455 91.804 12.0195C91.594 11.7015 91.4321 11.1855 91.3179 10.4415C91.1801 9.55352 91.1621 5.4675 91.2941 4.93951C91.636 3.56552 92.4341 3.05551 94.522 2.88751C95.968 2.77351 97.672 2.95951 98.362 3.3075C99.112 3.69151 99.406 4.54352 99.52 6.64952C99.5861 7.93352 99.5139 9.79351 99.37 10.6815C99.136 12.1035 98.728 12.5235 97.3121 12.7695C96.688 12.8835 94.8401 12.9315 94.096 12.8595ZM97.036 11.9295C97.732 11.8095 98.074 11.6355 98.2181 11.3475C98.464 10.8495 98.5241 10.1415 98.5241 7.72952C98.5299 5.23352 98.5 4.90952 98.2001 4.43552C97.8701 3.91351 97.1799 3.74551 95.4041 3.7395C93.5861 3.7395 92.6801 3.9555 92.482 4.44751C92.266 4.98751 92.23 5.51552 92.23 7.96951C92.2361 10.5135 92.2781 10.9755 92.5481 11.4435C92.6801 11.6655 93.136 11.8695 93.7061 11.9475C94.366 12.0435 96.4421 12.0315 97.036 11.9295Z" fill="#1E1E1E"/>
<path d="M50.6199 7.87362V2.95361L53.4878 2.97162C56.2719 2.98961 56.3618 2.99561 56.7519 3.12762C57.514 3.38561 57.9159 3.85361 58.0958 4.70562C58.2219 5.28162 58.1799 6.73361 58.036 7.20761C57.9038 7.62761 57.5978 7.95761 57.1898 8.12561C56.7939 8.28761 56.7519 8.43761 57.0758 8.53962C57.3879 8.64762 57.7239 8.97162 57.8858 9.33762C58.0239 9.63761 58.0299 9.72762 58.0479 11.2276L58.0719 12.7996H57.5558H57.0399V11.6476C57.0399 10.3876 56.9798 9.84761 56.8 9.49962C56.6439 9.19961 56.3079 8.92361 55.9839 8.84562C55.8218 8.80362 54.9639 8.77961 53.716 8.77961H51.6999V10.7896V12.7996H51.1599H50.6199V7.87362ZM55.4859 7.88562C56.2119 7.80761 56.4699 7.72362 56.7399 7.48361C57.0938 7.15961 57.1898 6.81761 57.1839 5.86961C57.1839 4.92162 57.07 4.47162 56.7699 4.18361C56.4279 3.86561 56.2539 3.84162 53.8779 3.81761L51.6999 3.79361V5.86361V7.93962H53.3379C54.2319 7.93962 55.2038 7.91561 55.4859 7.88562Z" fill="#1E1E1E"/>
<path d="M78.52 7.87947V2.95947H81.1181C83.956 2.95947 84.2561 2.98946 84.8802 3.30148C85.2941 3.51748 85.558 3.85947 85.732 4.41747C85.8521 4.80147 85.87 4.97548 85.87 5.95946C85.87 7.18948 85.81 7.49547 85.4861 8.01146C85.1861 8.48548 84.6581 8.73147 83.7341 8.83947C83.458 8.86946 82.414 8.89947 81.4181 8.89947H79.6V10.8495V12.7995H79.06H78.52V7.87947ZM84.0522 7.83148C84.7361 7.60347 84.9101 7.20747 84.904 5.89946C84.8981 4.53748 84.7421 4.13547 84.1421 3.93747C83.8782 3.85346 83.5061 3.83548 81.7182 3.81147L79.6 3.79346V5.89946V8.01146L81.6281 7.98747C83.5181 7.96347 83.6741 7.95146 84.0522 7.83148Z" fill="#1E1E1E"/>
<path d="M77.5423 72.5474C77.5782 72.5053 82.5704 65.5033 88.6424 56.9894C112.192 23.9593 114.586 20.6053 114.688 20.4853L114.79 20.3594L123.226 20.3713L131.668 20.3893L122.404 33.3733L113.14 46.3574L113.488 46.8434C113.674 47.1074 115.576 49.8013 117.712 52.8194L121.594 58.3033L121.396 58.5793C121.288 58.7293 118.996 61.9454 116.296 65.7374L111.388 72.6193H94.4383C80.8843 72.6193 77.5004 72.6013 77.5423 72.5474Z" fill="#0F75BD"/>
</svg>
